<mxfile host="Electron" agent="Mozilla/5.0 (Windows NT 10.0; Win64; x64) AppleWebKit/537.36 (KHTML, like Gecko) draw.io/24.7.5 Chrome/126.0.6478.183 Electron/31.3.0 Safari/537.36" version="24.7.5">
  <diagram name="Page-1" id="lpnLTRdYzm4OXFZ6302t">
    <mxGraphModel dx="1434" dy="836" grid="1" gridSize="10" guides="1" tooltips="1" connect="1" arrows="1" fold="1" page="1" pageScale="1" pageWidth="1169" pageHeight="827" math="0" shadow="0">
      <root>
        <mxCell id="0" />
        <mxCell id="1" parent="0" />
        <mxCell id="-fAjT1t3zxda8JAW4F-a-95" value="new config test environment" style="rounded=1;whiteSpace=wrap;html=1;dashed=1;fillColor=none;verticalAlign=bottom;" vertex="1" parent="1">
          <mxGeometry x="20" y="100" width="210" height="250" as="geometry" />
        </mxCell>
        <mxCell id="-fAjT1t3zxda8JAW4F-a-96" value="new config test environment" style="rounded=1;whiteSpace=wrap;html=1;dashed=1;fillColor=none;verticalAlign=bottom;" vertex="1" parent="1">
          <mxGeometry x="362" y="100" width="210" height="250" as="geometry" />
        </mxCell>
        <mxCell id="-fAjT1t3zxda8JAW4F-a-38" value="OpenNMS Instance 1" style="rounded=1;whiteSpace=wrap;html=1;fillColor=none;dashed=1;verticalAlign=bottom;" vertex="1" parent="1">
          <mxGeometry x="730" y="310" width="430" height="490" as="geometry" />
        </mxCell>
        <mxCell id="-fAjT1t3zxda8JAW4F-a-29" style="edgeStyle=orthogonalEdgeStyle;rounded=0;orthogonalLoop=1;jettySize=auto;html=1;" edge="1" parent="1" source="-fAjT1t3zxda8JAW4F-a-1" target="-fAjT1t3zxda8JAW4F-a-14">
          <mxGeometry relative="1" as="geometry" />
        </mxCell>
        <mxCell id="-fAjT1t3zxda8JAW4F-a-30" style="edgeStyle=orthogonalEdgeStyle;rounded=0;orthogonalLoop=1;jettySize=auto;html=1;entryX=0;entryY=0.5;entryDx=0;entryDy=0;" edge="1" parent="1" source="-fAjT1t3zxda8JAW4F-a-1" target="-fAjT1t3zxda8JAW4F-a-25">
          <mxGeometry relative="1" as="geometry" />
        </mxCell>
        <mxCell id="-fAjT1t3zxda8JAW4F-a-59" style="edgeStyle=orthogonalEdgeStyle;rounded=0;orthogonalLoop=1;jettySize=auto;html=1;" edge="1" parent="1" source="-fAjT1t3zxda8JAW4F-a-1">
          <mxGeometry relative="1" as="geometry">
            <mxPoint x="825" y="140" as="targetPoint" />
          </mxGeometry>
        </mxCell>
        <mxCell id="-fAjT1t3zxda8JAW4F-a-1" value="core" style="rounded=1;whiteSpace=wrap;html=1;verticalAlign=bottom;" vertex="1" parent="1">
          <mxGeometry x="770" y="400" width="110" height="240" as="geometry" />
        </mxCell>
        <mxCell id="-fAjT1t3zxda8JAW4F-a-7" value="pris" style="rounded=1;whiteSpace=wrap;html=1;verticalAlign=bottom;" vertex="1" parent="1">
          <mxGeometry x="440" y="670" width="120" height="80" as="geometry" />
        </mxCell>
        <mxCell id="-fAjT1t3zxda8JAW4F-a-8" value="cityFibre&lt;div&gt;Mapper&lt;/div&gt;" style="rounded=1;whiteSpace=wrap;html=1;" vertex="1" parent="1">
          <mxGeometry x="455" y="680" width="90" height="40" as="geometry" />
        </mxCell>
        <mxCell id="-fAjT1t3zxda8JAW4F-a-9" value="cityFibre inventory&amp;nbsp;&lt;div&gt;.csv&lt;/div&gt;" style="shape=note;whiteSpace=wrap;html=1;backgroundOutline=1;darkOpacity=0.05;size=18;" vertex="1" parent="1">
          <mxGeometry x="355" y="730" width="80" height="55" as="geometry" />
        </mxCell>
        <mxCell id="-fAjT1t3zxda8JAW4F-a-12" style="edgeStyle=orthogonalEdgeStyle;rounded=0;orthogonalLoop=1;jettySize=auto;html=1;entryX=-0.009;entryY=0.833;entryDx=0;entryDy=0;entryPerimeter=0;" edge="1" parent="1" source="-fAjT1t3zxda8JAW4F-a-7" target="-fAjT1t3zxda8JAW4F-a-1">
          <mxGeometry relative="1" as="geometry" />
        </mxCell>
        <mxCell id="-fAjT1t3zxda8JAW4F-a-13" value="requisition&lt;div&gt;&lt;span style=&quot;background-color: initial;&quot;&gt;(per FEX)&lt;/span&gt;&lt;/div&gt;" style="shape=note;whiteSpace=wrap;html=1;backgroundOutline=1;darkOpacity=0.05;size=18;" vertex="1" parent="1">
          <mxGeometry x="565" y="730" width="80" height="55" as="geometry" />
        </mxCell>
        <mxCell id="-fAjT1t3zxda8JAW4F-a-18" value="" style="endArrow=classic;html=1;rounded=0;entryX=0;entryY=0.5;entryDx=0;entryDy=0;" edge="1" parent="1" target="-fAjT1t3zxda8JAW4F-a-7">
          <mxGeometry width="50" height="50" relative="1" as="geometry">
            <mxPoint x="335" y="710" as="sourcePoint" />
            <mxPoint x="645" y="590" as="targetPoint" />
          </mxGeometry>
        </mxCell>
        <mxCell id="-fAjT1t3zxda8JAW4F-a-21" value="" style="group" vertex="1" connectable="0" parent="1">
          <mxGeometry x="930" y="344" width="200" height="150" as="geometry" />
        </mxCell>
        <mxCell id="-fAjT1t3zxda8JAW4F-a-2" value="minion" style="rounded=1;whiteSpace=wrap;html=1;" vertex="1" parent="-fAjT1t3zxda8JAW4F-a-21">
          <mxGeometry x="20" y="25" width="120" height="40" as="geometry" />
        </mxCell>
        <mxCell id="-fAjT1t3zxda8JAW4F-a-5" value="minion" style="rounded=1;whiteSpace=wrap;html=1;" vertex="1" parent="-fAjT1t3zxda8JAW4F-a-21">
          <mxGeometry x="20" y="85" width="120" height="40" as="geometry" />
        </mxCell>
        <mxCell id="-fAjT1t3zxda8JAW4F-a-14" value="location : fex1" style="rounded=1;whiteSpace=wrap;html=1;fillColor=none;dashed=1;verticalAlign=bottom;" vertex="1" parent="-fAjT1t3zxda8JAW4F-a-21">
          <mxGeometry width="200" height="150" as="geometry" />
        </mxCell>
        <mxCell id="-fAjT1t3zxda8JAW4F-a-17" value="load balancer&amp;nbsp;&lt;div&gt;syslog, SNMP etc&lt;/div&gt;" style="rounded=1;whiteSpace=wrap;html=1;textDirection=vertical-lr;direction=west;" vertex="1" parent="-fAjT1t3zxda8JAW4F-a-21">
          <mxGeometry x="150" y="25" width="40" height="100" as="geometry" />
        </mxCell>
        <mxCell id="-fAjT1t3zxda8JAW4F-a-27" value="" style="group" vertex="1" connectable="0" parent="1">
          <mxGeometry x="930" y="600" width="200" height="150" as="geometry" />
        </mxCell>
        <mxCell id="-fAjT1t3zxda8JAW4F-a-25" value="location : fex2" style="rounded=1;whiteSpace=wrap;html=1;fillColor=none;dashed=1;verticalAlign=bottom;" vertex="1" parent="-fAjT1t3zxda8JAW4F-a-27">
          <mxGeometry width="200" height="150" as="geometry" />
        </mxCell>
        <mxCell id="-fAjT1t3zxda8JAW4F-a-23" value="minion" style="rounded=1;whiteSpace=wrap;html=1;dashed=1;" vertex="1" parent="-fAjT1t3zxda8JAW4F-a-27">
          <mxGeometry x="20" y="25" width="120" height="40" as="geometry" />
        </mxCell>
        <mxCell id="-fAjT1t3zxda8JAW4F-a-24" value="minion" style="rounded=1;whiteSpace=wrap;html=1;dashed=1;" vertex="1" parent="-fAjT1t3zxda8JAW4F-a-27">
          <mxGeometry x="20" y="85" width="120" height="40" as="geometry" />
        </mxCell>
        <mxCell id="-fAjT1t3zxda8JAW4F-a-26" value="load balancer&amp;nbsp;&lt;div&gt;syslog, SNMP etc&lt;/div&gt;" style="rounded=1;whiteSpace=wrap;html=1;textDirection=vertical-lr;direction=west;dashed=1;" vertex="1" parent="-fAjT1t3zxda8JAW4F-a-27">
          <mxGeometry x="150" y="25" width="40" height="100" as="geometry" />
        </mxCell>
        <mxCell id="-fAjT1t3zxda8JAW4F-a-28" value="" style="endArrow=none;html=1;rounded=0;entryX=0.5;entryY=1;entryDx=0;entryDy=0;exitX=0.5;exitY=0;exitDx=0;exitDy=0;dashed=1;" edge="1" parent="1" source="-fAjT1t3zxda8JAW4F-a-25" target="-fAjT1t3zxda8JAW4F-a-14">
          <mxGeometry width="50" height="50" relative="1" as="geometry">
            <mxPoint x="710" y="530" as="sourcePoint" />
            <mxPoint x="760" y="480" as="targetPoint" />
          </mxGeometry>
        </mxCell>
        <mxCell id="-fAjT1t3zxda8JAW4F-a-31" value="minion kafka topics" style="text;html=1;align=center;verticalAlign=middle;whiteSpace=wrap;rounded=0;" vertex="1" parent="1">
          <mxGeometry x="910" y="530" width="50" height="20" as="geometry" />
        </mxCell>
        <mxCell id="-fAjT1t3zxda8JAW4F-a-35" value="&lt;div&gt;v33.x&lt;/div&gt;" style="rounded=1;whiteSpace=wrap;html=1;" vertex="1" parent="1">
          <mxGeometry x="190" y="10" width="135" height="30" as="geometry" />
        </mxCell>
        <mxCell id="-fAjT1t3zxda8JAW4F-a-37" style="edgeStyle=orthogonalEdgeStyle;rounded=0;orthogonalLoop=1;jettySize=auto;html=1;entryX=0;entryY=0.5;entryDx=0;entryDy=0;" edge="1" parent="1" source="-fAjT1t3zxda8JAW4F-a-36" target="-fAjT1t3zxda8JAW4F-a-44">
          <mxGeometry relative="1" as="geometry">
            <mxPoint x="771.5100000000002" y="507.1199999999999" as="targetPoint" />
          </mxGeometry>
        </mxCell>
        <mxCell id="-fAjT1t3zxda8JAW4F-a-39" value="OpenNMS Instance n" style="rounded=1;whiteSpace=wrap;html=1;fillColor=none;dashed=1;arcSize=50;" vertex="1" parent="1">
          <mxGeometry x="730" y="220" width="430" height="40" as="geometry" />
        </mxCell>
        <mxCell id="-fAjT1t3zxda8JAW4F-a-43" value="" style="endArrow=none;html=1;rounded=0;entryX=0.5;entryY=1;entryDx=0;entryDy=0;dashed=1;" edge="1" parent="1" source="-fAjT1t3zxda8JAW4F-a-38" target="-fAjT1t3zxda8JAW4F-a-39">
          <mxGeometry width="50" height="50" relative="1" as="geometry">
            <mxPoint x="700" y="450" as="sourcePoint" />
            <mxPoint x="750" y="400" as="targetPoint" />
          </mxGeometry>
        </mxCell>
        <mxCell id="-fAjT1t3zxda8JAW4F-a-44" value="&lt;div&gt;Running&lt;/div&gt;&lt;div&gt;config/etc&lt;/div&gt;" style="rounded=1;whiteSpace=wrap;html=1;" vertex="1" parent="1">
          <mxGeometry x="777.5" y="494" width="95" height="30" as="geometry" />
        </mxCell>
        <mxCell id="-fAjT1t3zxda8JAW4F-a-45" value="&lt;div&gt;confd / scripts&lt;/div&gt;" style="rounded=1;whiteSpace=wrap;html=1;" vertex="1" parent="1">
          <mxGeometry x="777.5" y="452" width="95" height="30" as="geometry" />
        </mxCell>
        <mxCell id="-fAjT1t3zxda8JAW4F-a-46" value="confd.yml" style="shape=note;whiteSpace=wrap;html=1;backgroundOutline=1;darkOpacity=0.05;size=9;" vertex="1" parent="1">
          <mxGeometry x="790" y="420" width="70" height="22" as="geometry" />
        </mxCell>
        <mxCell id="-fAjT1t3zxda8JAW4F-a-48" value="" style="endArrow=classic;html=1;rounded=0;" edge="1" parent="1">
          <mxGeometry width="50" height="50" relative="1" as="geometry">
            <mxPoint x="692.5" y="467" as="sourcePoint" />
            <mxPoint x="782.5" y="467" as="targetPoint" />
          </mxGeometry>
        </mxCell>
        <mxCell id="-fAjT1t3zxda8JAW4F-a-49" value="Instance specific properties" style="shape=note;whiteSpace=wrap;html=1;backgroundOutline=1;darkOpacity=0.05;size=18;fontColor=#FF0000;" vertex="1" parent="1">
          <mxGeometry x="632.5" y="420" width="90" height="40" as="geometry" />
        </mxCell>
        <mxCell id="-fAjT1t3zxda8JAW4F-a-51" value="" style="endArrow=classic;html=1;rounded=0;" edge="1" parent="1">
          <mxGeometry width="50" height="50" relative="1" as="geometry">
            <mxPoint x="670" y="230" as="sourcePoint" />
            <mxPoint x="730" y="230" as="targetPoint" />
          </mxGeometry>
        </mxCell>
        <mxCell id="-fAjT1t3zxda8JAW4F-a-52" value="Instance specific properties" style="shape=note;whiteSpace=wrap;html=1;backgroundOutline=1;darkOpacity=0.05;size=18;fontColor=#FF0000;" vertex="1" parent="1">
          <mxGeometry x="620" y="180" width="90" height="40" as="geometry" />
        </mxCell>
        <mxCell id="-fAjT1t3zxda8JAW4F-a-53" value="v1.0" style="rounded=1;whiteSpace=wrap;html=1;" vertex="1" parent="1">
          <mxGeometry x="427" y="452" width="135" height="30" as="geometry" />
        </mxCell>
        <mxCell id="-fAjT1t3zxda8JAW4F-a-54" value="&lt;div&gt;v1.1&lt;/div&gt;" style="rounded=1;whiteSpace=wrap;html=1;" vertex="1" parent="1">
          <mxGeometry x="437" y="472" width="135" height="30" as="geometry" />
        </mxCell>
        <mxCell id="-fAjT1t3zxda8JAW4F-a-61" style="edgeStyle=orthogonalEdgeStyle;rounded=0;orthogonalLoop=1;jettySize=auto;html=1;entryX=0;entryY=0.75;entryDx=0;entryDy=0;" edge="1" parent="1" source="-fAjT1t3zxda8JAW4F-a-36" target="-fAjT1t3zxda8JAW4F-a-39">
          <mxGeometry relative="1" as="geometry">
            <Array as="points">
              <mxPoint x="610" y="511" />
              <mxPoint x="610" y="250" />
            </Array>
          </mxGeometry>
        </mxCell>
        <mxCell id="-fAjT1t3zxda8JAW4F-a-36" value="&lt;div&gt;Combined Production&lt;/div&gt;&lt;div&gt;config/etc&lt;/div&gt;" style="rounded=1;whiteSpace=wrap;html=1;" vertex="1" parent="1">
          <mxGeometry x="447" y="492" width="137.5" height="38" as="geometry" />
        </mxCell>
        <mxCell id="-fAjT1t3zxda8JAW4F-a-55" value="&lt;div&gt;v34.x&lt;/div&gt;" style="rounded=1;whiteSpace=wrap;html=1;" vertex="1" parent="1">
          <mxGeometry x="200" y="35" width="135" height="30" as="geometry" />
        </mxCell>
        <mxCell id="-fAjT1t3zxda8JAW4F-a-34" value="&lt;div&gt;Pristine ONMS config&lt;/div&gt;&lt;div&gt;config/etc&lt;/div&gt;" style="rounded=1;whiteSpace=wrap;html=1;" vertex="1" parent="1">
          <mxGeometry x="210" y="60" width="135" height="30" as="geometry" />
        </mxCell>
        <mxCell id="-fAjT1t3zxda8JAW4F-a-56" value="postgres" style="shape=cylinder3;whiteSpace=wrap;html=1;boundedLbl=1;backgroundOutline=1;size=15;" vertex="1" parent="1">
          <mxGeometry x="797.5" y="650" width="55" height="65" as="geometry" />
        </mxCell>
        <mxCell id="-fAjT1t3zxda8JAW4F-a-60" value="Event / Alarm / Performance kafka topics" style="text;html=1;align=center;verticalAlign=middle;whiteSpace=wrap;rounded=0;" vertex="1" parent="1">
          <mxGeometry x="787.5" y="100" width="85" height="30" as="geometry" />
        </mxCell>
        <mxCell id="-fAjT1t3zxda8JAW4F-a-66" value="regression tests" style="rounded=1;whiteSpace=wrap;html=1;" vertex="1" parent="1">
          <mxGeometry x="55" y="160" width="120" height="30" as="geometry" />
        </mxCell>
        <mxCell id="-fAjT1t3zxda8JAW4F-a-69" value="&lt;div&gt;Overlay config / rules&lt;/div&gt;" style="rounded=1;whiteSpace=wrap;html=1;" vertex="1" parent="1">
          <mxGeometry x="55" y="120" width="120" height="30" as="geometry" />
        </mxCell>
        <mxCell id="-fAjT1t3zxda8JAW4F-a-70" value="" style="group" vertex="1" connectable="0" parent="1">
          <mxGeometry x="30" y="205" width="185" height="110" as="geometry" />
        </mxCell>
        <mxCell id="-fAjT1t3zxda8JAW4F-a-62" value="core" style="rounded=1;whiteSpace=wrap;html=1;" vertex="1" parent="-fAjT1t3zxda8JAW4F-a-70">
          <mxGeometry x="9.736842105263158" y="20" width="77.89473684210526" height="30" as="geometry" />
        </mxCell>
        <mxCell id="-fAjT1t3zxda8JAW4F-a-63" value="minion" style="rounded=1;whiteSpace=wrap;html=1;" vertex="1" parent="-fAjT1t3zxda8JAW4F-a-70">
          <mxGeometry x="94.12280701754386" y="20" width="77.89473684210526" height="30" as="geometry" />
        </mxCell>
        <mxCell id="-fAjT1t3zxda8JAW4F-a-64" value="kafka" style="rounded=1;whiteSpace=wrap;html=1;" vertex="1" parent="-fAjT1t3zxda8JAW4F-a-70">
          <mxGeometry x="9.736842105263158" y="60" width="77.89473684210526" height="30" as="geometry" />
        </mxCell>
        <mxCell id="-fAjT1t3zxda8JAW4F-a-65" value="database" style="rounded=1;whiteSpace=wrap;html=1;" vertex="1" parent="-fAjT1t3zxda8JAW4F-a-70">
          <mxGeometry x="94.12280701754386" y="60" width="77.89473684210526" height="30" as="geometry" />
        </mxCell>
        <mxCell id="-fAjT1t3zxda8JAW4F-a-68" value="dockerised test environment" style="rounded=1;whiteSpace=wrap;html=1;verticalAlign=bottom;fillColor=none;" vertex="1" parent="-fAjT1t3zxda8JAW4F-a-70">
          <mxGeometry width="185" height="110" as="geometry" />
        </mxCell>
        <mxCell id="-fAjT1t3zxda8JAW4F-a-79" value="regression tests" style="rounded=1;whiteSpace=wrap;html=1;" vertex="1" parent="1">
          <mxGeometry x="374.5" y="160" width="105" height="30" as="geometry" />
        </mxCell>
        <mxCell id="-fAjT1t3zxda8JAW4F-a-80" value="&lt;div&gt;Overlay config / rules&lt;/div&gt;" style="rounded=1;whiteSpace=wrap;html=1;" vertex="1" parent="1">
          <mxGeometry x="376.5" y="120" width="103" height="30" as="geometry" />
        </mxCell>
        <mxCell id="-fAjT1t3zxda8JAW4F-a-81" value="" style="group" vertex="1" connectable="0" parent="1">
          <mxGeometry x="374.5" y="205" width="185" height="110" as="geometry" />
        </mxCell>
        <mxCell id="-fAjT1t3zxda8JAW4F-a-82" value="core" style="rounded=1;whiteSpace=wrap;html=1;" vertex="1" parent="-fAjT1t3zxda8JAW4F-a-81">
          <mxGeometry x="9.736842105263158" y="20" width="77.89473684210526" height="30" as="geometry" />
        </mxCell>
        <mxCell id="-fAjT1t3zxda8JAW4F-a-83" value="minion" style="rounded=1;whiteSpace=wrap;html=1;" vertex="1" parent="-fAjT1t3zxda8JAW4F-a-81">
          <mxGeometry x="94.12280701754386" y="20" width="77.89473684210526" height="30" as="geometry" />
        </mxCell>
        <mxCell id="-fAjT1t3zxda8JAW4F-a-84" value="kafka" style="rounded=1;whiteSpace=wrap;html=1;" vertex="1" parent="-fAjT1t3zxda8JAW4F-a-81">
          <mxGeometry x="9.736842105263158" y="60" width="77.89473684210526" height="30" as="geometry" />
        </mxCell>
        <mxCell id="-fAjT1t3zxda8JAW4F-a-85" value="database" style="rounded=1;whiteSpace=wrap;html=1;" vertex="1" parent="-fAjT1t3zxda8JAW4F-a-81">
          <mxGeometry x="94.12280701754386" y="60" width="77.89473684210526" height="30" as="geometry" />
        </mxCell>
        <mxCell id="-fAjT1t3zxda8JAW4F-a-86" value="dockerised test environment" style="rounded=1;whiteSpace=wrap;html=1;verticalAlign=bottom;fillColor=none;" vertex="1" parent="-fAjT1t3zxda8JAW4F-a-81">
          <mxGeometry width="185" height="110" as="geometry" />
        </mxCell>
        <mxCell id="-fAjT1t3zxda8JAW4F-a-97" value="regression tests" style="rounded=1;whiteSpace=wrap;html=1;" vertex="1" parent="1">
          <mxGeometry x="180" y="474" width="120" height="30" as="geometry" />
        </mxCell>
        <mxCell id="-fAjT1t3zxda8JAW4F-a-98" value="&lt;div&gt;Overlay config / rules&lt;/div&gt;" style="rounded=1;whiteSpace=wrap;html=1;" vertex="1" parent="1">
          <mxGeometry x="180" y="434" width="120" height="30" as="geometry" />
        </mxCell>
        <mxCell id="-fAjT1t3zxda8JAW4F-a-99" value="" style="group" vertex="1" connectable="0" parent="1">
          <mxGeometry x="155" y="519" width="185" height="110" as="geometry" />
        </mxCell>
        <mxCell id="-fAjT1t3zxda8JAW4F-a-100" value="core" style="rounded=1;whiteSpace=wrap;html=1;" vertex="1" parent="-fAjT1t3zxda8JAW4F-a-99">
          <mxGeometry x="9.736842105263158" y="20" width="77.89473684210526" height="30" as="geometry" />
        </mxCell>
        <mxCell id="-fAjT1t3zxda8JAW4F-a-101" value="minion" style="rounded=1;whiteSpace=wrap;html=1;" vertex="1" parent="-fAjT1t3zxda8JAW4F-a-99">
          <mxGeometry x="94.12280701754386" y="20" width="77.89473684210526" height="30" as="geometry" />
        </mxCell>
        <mxCell id="-fAjT1t3zxda8JAW4F-a-102" value="kafka" style="rounded=1;whiteSpace=wrap;html=1;" vertex="1" parent="-fAjT1t3zxda8JAW4F-a-99">
          <mxGeometry x="9.736842105263158" y="60" width="77.89473684210526" height="30" as="geometry" />
        </mxCell>
        <mxCell id="-fAjT1t3zxda8JAW4F-a-103" value="database" style="rounded=1;whiteSpace=wrap;html=1;" vertex="1" parent="-fAjT1t3zxda8JAW4F-a-99">
          <mxGeometry x="94.12280701754386" y="60" width="77.89473684210526" height="30" as="geometry" />
        </mxCell>
        <mxCell id="-fAjT1t3zxda8JAW4F-a-104" value="dockerised test environment" style="rounded=1;whiteSpace=wrap;html=1;verticalAlign=bottom;fillColor=none;" vertex="1" parent="-fAjT1t3zxda8JAW4F-a-99">
          <mxGeometry width="185" height="110" as="geometry" />
        </mxCell>
        <mxCell id="-fAjT1t3zxda8JAW4F-a-106" style="edgeStyle=orthogonalEdgeStyle;rounded=0;orthogonalLoop=1;jettySize=auto;html=1;entryX=0;entryY=0.75;entryDx=0;entryDy=0;" edge="1" parent="1" source="-fAjT1t3zxda8JAW4F-a-105" target="-fAjT1t3zxda8JAW4F-a-54">
          <mxGeometry relative="1" as="geometry" />
        </mxCell>
        <mxCell id="-fAjT1t3zxda8JAW4F-a-105" value="combined pre-production test" style="rounded=1;whiteSpace=wrap;html=1;dashed=1;fillColor=none;verticalAlign=bottom;" vertex="1" parent="1">
          <mxGeometry x="145" y="414" width="210" height="250" as="geometry" />
        </mxCell>
        <mxCell id="-fAjT1t3zxda8JAW4F-a-107" value="" style="shape=curlyBracket;whiteSpace=wrap;html=1;rounded=1;flipH=1;labelPosition=right;verticalLabelPosition=middle;align=left;verticalAlign=middle;rotation=90;size=0.5;" vertex="1" parent="1">
          <mxGeometry x="287.5" y="82.5" width="20" height="575" as="geometry" />
        </mxCell>
        <mxCell id="-fAjT1t3zxda8JAW4F-a-109" value="captured scenarios / logs / events" style="shape=note;whiteSpace=wrap;html=1;backgroundOutline=1;darkOpacity=0.05;size=9;fontColor=#009900;" vertex="1" parent="1">
          <mxGeometry x="489.5" y="130" width="60" height="60" as="geometry" />
        </mxCell>
        <mxCell id="-fAjT1t3zxda8JAW4F-a-110" value="captured scenarios / logs / events" style="shape=note;whiteSpace=wrap;html=1;backgroundOutline=1;darkOpacity=0.05;size=9;fontColor=#009900;" vertex="1" parent="1">
          <mxGeometry x="630" y="540" width="72.5" height="50" as="geometry" />
        </mxCell>
        <mxCell id="-fAjT1t3zxda8JAW4F-a-111" value="" style="endArrow=classic;html=1;rounded=0;exitX=0.018;exitY=0.667;exitDx=0;exitDy=0;exitPerimeter=0;entryX=1.048;entryY=0.42;entryDx=0;entryDy=0;entryPerimeter=0;" edge="1" parent="1" source="-fAjT1t3zxda8JAW4F-a-1" target="-fAjT1t3zxda8JAW4F-a-110">
          <mxGeometry width="50" height="50" relative="1" as="geometry">
            <mxPoint x="520" y="350" as="sourcePoint" />
            <mxPoint x="570" y="300" as="targetPoint" />
          </mxGeometry>
        </mxCell>
        <mxCell id="-fAjT1t3zxda8JAW4F-a-112" value="2.docker compose based test environments which could be used within a CI/CD process to check combined configurations&amp;nbsp;" style="text;html=1;align=left;verticalAlign=middle;whiteSpace=wrap;rounded=0;fontColor=#0000CC;" vertex="1" parent="1">
          <mxGeometry x="242.5" y="136" width="110" height="84" as="geometry" />
        </mxCell>
        <mxCell id="-fAjT1t3zxda8JAW4F-a-113" value="1. Pristine Configuration for a given OpenNMS Release is used as starting point" style="text;html=1;align=left;verticalAlign=middle;whiteSpace=wrap;rounded=0;fontColor=#0000CC;fillColor=none;" vertex="1" parent="1">
          <mxGeometry x="355" y="35" width="155" height="30" as="geometry" />
        </mxCell>
        <mxCell id="-fAjT1t3zxda8JAW4F-a-114" value="3. New Rules/ Parsing configs or event configs created and tested for individual device families" style="text;html=1;align=left;verticalAlign=middle;whiteSpace=wrap;rounded=0;fontColor=#0000CC;" vertex="1" parent="1">
          <mxGeometry x="240" y="290" width="100" height="20" as="geometry" />
        </mxCell>
        <mxCell id="-fAjT1t3zxda8JAW4F-a-115" value="4. all work is combined into a pre-production release and tested" style="text;html=1;align=left;verticalAlign=middle;whiteSpace=wrap;rounded=0;fontColor=#0000CC;" vertex="1" parent="1">
          <mxGeometry x="30" y="464" width="90" height="126" as="geometry" />
        </mxCell>
        <mxCell id="-fAjT1t3zxda8JAW4F-a-116" value="5. Production configurations are version controlled and rolled out through automation" style="text;html=1;align=left;verticalAlign=middle;whiteSpace=wrap;rounded=0;fontColor=#0000CC;" vertex="1" parent="1">
          <mxGeometry x="434.5" y="540" width="120" height="90" as="geometry" />
        </mxCell>
        <mxCell id="-fAjT1t3zxda8JAW4F-a-117" value="A. Network Configuration is derived from CityFibre inventory and mapped into the internal OpennMS model" style="text;html=1;align=left;verticalAlign=middle;whiteSpace=wrap;rounded=0;fontColor=#FF0000;" vertex="1" parent="1">
          <mxGeometry x="180" y="742.5" width="130" height="30" as="geometry" />
        </mxCell>
        <mxCell id="-fAjT1t3zxda8JAW4F-a-118" value="B a common configuration of event definitions and rulesfor all instances is maintained" style="text;html=1;align=left;verticalAlign=middle;whiteSpace=wrap;rounded=0;fontColor=#FF0000;" vertex="1" parent="1">
          <mxGeometry x="412" y="404" width="160" height="30" as="geometry" />
        </mxCell>
        <mxCell id="-fAjT1t3zxda8JAW4F-a-119" value="C Instance specific properties are overlaid on configuration thrugh start up scripts and properties" style="text;html=1;align=left;verticalAlign=middle;whiteSpace=wrap;rounded=0;fontColor=#FF0000;" vertex="1" parent="1">
          <mxGeometry x="632.5" y="300" width="77.5" height="85" as="geometry" />
        </mxCell>
      </root>
    </mxGraphModel>
  </diagram>
</mxfile>
